# xmcd
#
# Track frame offsets: 
#        150
#        12950
#        26712
#        39912
#        52587
#        63275
#        78975
#        92400
#        105087
#        117825
#        131625
#        143760
#
# Disc length: 2103 seconds
#
# Revision: 2
# Processed by: cddbd v1.5.2PL0 Copyright (c) Steve Scherf et al.
# Submitted via: ExactAudioCopyFreeDBPlugin 1.0
#
DISCID=8308350c
DTITLE=Don Williams - 36 All-Time Greatest Hits - Disc 2
DYEAR=1900
DGENRE=Country
TTITLE0=Falling Again
TTITLE1=Miracles
TTITLE2=Mistakes
TTITLE3=You're My Best Friend
TTITLE4=(Turn Out The Light And) Love Me Tonight
TTITLE5='Till The Rivers All Run Dry
TTITLE6=Say It Again
TTITLE7=She Never Knew Me
TTITLE8=Some Broken Hearts Never Mend
TTITLE9=I'm Just A Country Boy
TTITLE10=Nobody But You
TTITLE11=Stay Young
EXTD=
EXTT0=
EXTT1=
EXTT2=
EXTT3=
EXTT4=
EXTT5=
EXTT6=
EXTT7=
EXTT8=
EXTT9=
EXTT10=
EXTT11=
PLAYORDER=
